<?xml version="1.0" encoding="UTF-8"?>
<svg id="Capa_1" xmlns="http://www.w3.org/2000/svg" version="1.1" viewBox="0 0 83.8 48">
  <!-- Generator: Adobe Illustrator 29.6.1, SVG Export Plug-In . SVG Version: 2.1.1 Build 9)  -->
  <defs>
    <style>
      .st0 {
        fill: #fff;
      }

      .st1 {
        fill: #0e4595;
      }

      .st2 {
        fill: #008809;
      }
    </style>
  </defs>
  <g>
    <path class="st1" d="M-187.6,8.1c0-3.3,2.7-6,6-6h50.4c3.3,0,6,2.7,6,6v31.8c0,3.3-2.7,6-6,6h-50.4c-3.3,0-6-2.7-6-6V8.1Z"/>
    <circle class="st0" cx="-190.3" cy="24.7" r="15.9"/>
    <path class="st2" d="M-190.3,10.9c-7.6,0-13.7,6.2-13.7,13.7s6.2,13.7,13.7,13.7,13.7-6.2,13.7-13.7-6.2-13.7-13.7-13.7ZM-193,31.5l-6.9-6.9,1.9-1.9,4.9,4.9,10.4-10.4,1.9,2-12.4,12.4h.2Z"/>
    <g>
      <path class="st0" d="M-170.1,27.8c.5-3.8,1.6-9.8,5.8-11.3s5.8,2.3,5.8,5.3-2,1.7-2.4.4-.2-2-1-2.9c-1.2-1.4-2.8.2-3.5,1.2-1.3,1.9-2.6,7.1-2,9.4.6,2.3,1.2,1.2,2.2.6s1.8-1.3,2.9-1.7,1.6-.4,2.1,0c1.1.8.3,2.6.2,3.6,1.1-.8,2.9-.9,3.5.6.6,0,1.1,0,1.7.3s1.9,1.3,2,1.8c.3.9-.3,1.7-1.3,1.7s-1.3-1.2-2.1-1.3-.5,0-.8,0c-.7,0-1.3-.4-1.7-1-1,.7-2.2,1.1-3.2,0s-.7-1.8-.5-2.9c-1.6,1-3.2,2.3-5.2,1.6s-2.2-2.3-2.4-3.9v-1.5h0Z"/>
      <path class="st0" d="M-142.7,21.2v.3c-1.4,3.3-2.4,7-3.8,10.3s-1.9,3.3-3.1,4.3-.5.3-.6.5c-.2.3-.2.8-.5,1.1s-.5.2-.8,0c-.6-.4,0-1.1,0-1.5s0-.3,0-.5c-.4-1.8,0-3.9.3-5.7l3.9-10.5,4.6,1.7h0Z"/>
      <path class="st0" d="M-141.9,19.4l-4.7-1.8c.9-2.2,1.6-4.5,2.4-6.7.8-2.2.6-1.8,1.6-2.4,2.1-1.2,3.6.7,3.5,2.7-.9,2.8-2,5.4-2.9,8.2h0Z"/>
      <path class="st0" d="M-144.8,9.2c.3.3.4.7.3,1.1l-3,8.1c-.5,1.2-2.1,1-2.2-.3.9-2.9,2.1-5.7,3.1-8.5.3-.7,1.3-.9,1.8-.3h0Z"/>
    </g>
  </g>
  <g>
    <path class="st1" d="M-83.9,8.1c0-3.3,2.7-6,6-6H-27.5c3.3,0,6,2.7,6,6v31.8c0,3.3-2.7,6-6,6h-50.4c-3.3,0-6-2.7-6-6V8.1h0Z"/>
    <path class="st0" d="M-56.5,29.7l-2.8-1.3c.6-1.2.8-2.5.8-3.8s-.3-2.5-.8-3.7l2.8-1.3c.7,1.5,1.1,3.2,1.1,4.9s-.3,3.5-1.1,5.1h0ZM-50.3,32.8l-2.6-1.5c1.1-1.9,1.6-4,1.6-6.4s-.5-4.7-1.6-6.9l2.7-1.4c1.3,2.6,2,5.4,2,8.3s-.7,5.6-2,7.9h0ZM-43.9,35.5l-2.7-1.3c1.6-3.3,2.4-6.5,2.4-9.5s-.8-6.3-2.4-9.4l2.7-1.4c1.8,3.6,2.7,7.2,2.7,10.8s-.9,7.2-2.7,10.9h0Z"/>
    <circle class="st0" cx="-86.5" cy="24.7" r="15.9"/>
    <path class="st2" d="M-86.5,10.9c-7.6,0-13.7,6.2-13.7,13.7s6.2,13.7,13.7,13.7,13.7-6.2,13.7-13.7-6.2-13.7-13.7-13.7ZM-89.3,31.5l-6.9-6.9,1.9-1.9,4.9,4.9,10.4-10.4,1.9,2-12.4,12.4h.2Z"/>
  </g>
  <g>
    <path class="st1" d="M19.9,8.1c0-3.3,2.7-6,6-6h50.4c3.3,0,6,2.7,6,6v31.8c0,3.3-2.7,6-6,6H26c-3.3,0-6-2.7-6-6V8.1h0Z"/>
    <circle class="st0" cx="17.3" cy="24.7" r="15.9"/>
    <path class="st2" d="M17.3,10.9c-7.6,0-13.7,6.2-13.7,13.7s6.2,13.7,13.7,13.7,13.7-6.2,13.7-13.7-6.2-13.7-13.7-13.7ZM14.6,31.5l-6.9-6.9,1.9-1.9,4.9,4.9,10.4-10.4,1.9,2-12.4,12.4h.2Z"/>
  </g>
  <g>
    <path class="st0" d="M53.8,36.7c-7,0-12.7-5.7-12.7-12.7s5.7-12.7,12.7-12.7,12.7,5.7,12.7,12.7-5.7,12.7-12.7,12.7ZM53.8,13.6c-5.7,0-10.4,4.7-10.4,10.4s4.7,10.4,10.4,10.4,10.4-4.7,10.4-10.4-4.7-10.4-10.4-10.4Z"/>
    <path class="st0" d="M53.9,20.3c-.6,0-1.2-.5-1.2-1.2v-2.9c0-.6.5-1.2,1.2-1.2s1.2.5,1.2,1.2v2.9c0,.6-.5,1.2-1.2,1.2Z"/>
    <path class="st0" d="M54,30c-3.6,0-3.9-2.4-3.9-3.1s.5-1.2,1.2-1.2,1.2.5,1.2,1.2,0,.8,1.6.8,1.6,0,1.6-.8-.8-1.2-2.1-1.9c-1.5-.8-3.4-1.8-3.4-3.9,0-3.1,2.4-3.1,3.9-3.1,2.3,0,3.9,1.3,3.9,3.1s-.5,1.2-1.2,1.2-1.2-.5-1.2-1.2-.8-.8-1.6-.8c-1.6,0-1.6,0-1.6.8s.8,1.2,2.1,1.9c1.5.8,3.4,1.8,3.4,3.9,0,3.1-2.4,3.1-3.9,3.1Z"/>
    <path class="st0" d="M53.9,32.9c-.6,0-1.2-.5-1.2-1.2v-2.9c0-.6.5-1.2,1.2-1.2s1.2.5,1.2,1.2v2.9c0,.6-.5,1.2-1.2,1.2Z"/>
  </g>
</svg>