<svg width="81" height="48" viewBox="0 0 81 48" fill="none" xmlns="http://www.w3.org/2000/svg">
<path d="M18.5902 7.42626C18.5902 4.11256 21.2765 1.42627 24.5902 1.42627H75C78.3137 1.42627 81 4.11256 81 7.42627V39.2459C81 42.5597 78.3138 45.2459 75 45.2459H24.5902C21.2765 45.2459 18.5902 42.5596 18.5902 39.2459V7.42626Z" fill="#0E4595"/>
<path d="M45.9071 28.9883L43.1381 27.726C43.7082 26.484 43.9729 25.2012 43.9525 23.9389C43.9321 22.6562 43.6674 21.4142 43.1381 20.274L45.9071 18.9912C46.6197 20.5183 46.9862 22.1675 47.0066 23.8778C47.027 25.6288 46.6605 27.3391 45.9071 28.9883ZM52.1579 32.1646L49.511 30.6579C50.5697 28.7847 51.0991 26.6265 51.0991 24.2443C51.0991 21.8214 50.5494 19.5003 49.4702 17.3217L52.1986 15.9575C53.5017 18.5637 54.1532 21.3531 54.1532 24.2443C54.1532 27.1559 53.4813 29.8231 52.1579 32.1646ZM58.5511 34.8522L55.8024 33.5084C57.3906 30.2507 58.205 27.0337 58.205 23.9592C58.205 20.8848 57.3906 17.7085 55.8024 14.5119L58.5308 13.1477C60.3632 16.7719 61.2591 20.3961 61.2591 23.9592C61.2591 27.502 60.3632 31.1669 58.5511 34.8522Z" fill="white"/>
<circle cx="15.9344" cy="24" r="15.9344" fill="white"/>
<path d="M15.9344 10.256C8.34766 10.256 2.19031 16.4133 2.19031 24.0001C2.19031 31.5868 8.34766 37.7442 15.9344 37.7442C23.5211 37.7442 29.6785 31.5868 29.6785 24.0001C29.6785 16.4133 23.5211 10.256 15.9344 10.256ZM13.1856 30.8721L6.31354 24.0001L8.25145 22.0622L13.1856 26.9825L23.6174 16.5508L25.5553 18.5024L13.1856 30.8721Z" fill="#008809"/>
</svg>
