<svg width="68" height="66" viewBox="0 0 68 66" fill="none" xmlns="http://www.w3.org/2000/svg">
<path d="M53.0938 43L62.6176 40.5L64.9985 50.5" stroke="#FFAB00" stroke-width="6" stroke-linecap="round" stroke-linejoin="round"/>
<path d="M62.618 40.5C60.503 46.7931 56.6611 52.2879 51.5766 56.292C46.4921 60.296 40.3925 62.6301 34.0466 63C28.1805 63.0011 22.4562 61.1063 17.6513 57.5729C12.8464 54.0395 9.19371 49.0388 7.18945 43.25" stroke="#FFAB00" stroke-width="6" stroke-linecap="round" stroke-linejoin="round"/>
<path d="M14.9985 23L5.4747 25.5L3.09375 15.5" stroke="#FFAB00" stroke-width="6" stroke-linecap="round" stroke-linejoin="round"/>
<path d="M5.47656 25.5C9.47656 14 21.7623 3 34.048 3C39.9427 3.0174 45.688 4.94878 50.4962 8.52938C55.3045 12.11 58.9402 17.1645 60.9051 23" stroke="#FFAB00" stroke-width="6" stroke-linecap="round" stroke-linejoin="round"/>
</svg>
