<svg width="67" height="66" viewBox="0 0 67 66" fill="none" xmlns="http://www.w3.org/2000/svg">
<path d="M33.4277 63C49.9963 63 63.4277 49.5685 63.4277 33C63.4277 16.4315 49.9963 3 33.4277 3C16.8592 3 3.42773 16.4315 3.42773 33C3.42773 49.5685 16.8592 63 33.4277 63Z" stroke="#36B57F" stroke-width="6" stroke-linecap="round" stroke-linejoin="round"/>
<path d="M33.9023 20.5V13" stroke="#36B57F" stroke-width="6" stroke-linecap="round" stroke-linejoin="round"/>
<path d="M26.7617 40.5C26.7617 44.25 29.9522 45.5 33.9046 45.5C37.857 45.5 41.0474 45.5 41.0474 40.5C41.0474 33 26.7617 33 26.7617 25.5C26.7617 20.5 29.9522 20.5 33.9046 20.5C37.857 20.5 41.0474 22.4 41.0474 25.5" stroke="#36B57F" stroke-width="6" stroke-linecap="round" stroke-linejoin="round"/>
<path d="M33.9023 45.5V53" stroke="#36B57F" stroke-width="6" stroke-linecap="round" stroke-linejoin="round"/>
</svg>
